# xmcd
#
# Track frame offsets: 
#        150
#        11817
#        51945
#        65442
#        79005
#        92200
#        106675
#        118502
#        131120
#        148587
#        159180
#        190195
#        213197
#        225692
#        236247
#        249350
#        267960
#        279162
#        292017
#        306697
#
# Disc length: 4248 seconds
#
# Revision: 7
# Processed by: cddbd v1.5.2PL0 Copyright (c) Steve Scherf et al.
# Submitted via: ExactAudioCopy v0.99pb5
#
DISCID=21109614
DTITLE=Various Artist - Respect
DYEAR=2000
DGENRE=Soul
TTITLE0=Wilson Pickett - In The Midnight Hour
TTITLE1=Curtis Mayfield - Move On Up
TTITLE2=Smokey Robinson and The Miracles - The Tears Of A Clown
TTITLE3=Four Tops - Reach Out I'll Be There
TTITLE4=Fontella Bass - Rescue Me
TTITLE5=Detroit Spinners - It's A Shame
TTITLE6=Sam and Dave - Soul Man
TTITLE7=Rare Earth - Get Ready
TTITLE8=Charles Wright and The Watts 103rd Rhythm Band - Express Yoursel
TTITLE8=f
TTITLE9=Arthur Conley - Sweet Soul Music
TTITLE10=The Temptations - Papa Was A Rolling Stone
TTITLE11=Ray Charles - What'd I Say
TTITLE12=Albert King - Born Under A Bad Sign
TTITLE13=Bar-Kays - Soul Finger
TTITLE14=Carla Thomas - B.A.B.Y
TTITLE15=Love Unlimited Orchestra - Love's Theme
TTITLE16=Marvelettes - Please Mr Postman
TTITLE17=Miracles - Shop Around
TTITLE18=Marvin Gaye - I Heard It Through The Grapevine
TTITLE19=Otis Redding - (Sittin' On) The Dock Of The Bay
EXTD=Respect:  Soundtrack to the Soul Generation
EXTT0=
EXTT1=
EXTT2=
EXTT3=
EXTT4=
EXTT5=
EXTT6=
EXTT7=
EXTT8=
EXTT9=
EXTT10=
EXTT11=
EXTT12=
EXTT13=
EXTT14=
EXTT15=
EXTT16=
EXTT17=
EXTT18=
EXTT19=
PLAYORDER=
